<?xml version="1.0" encoding="iso-8859-1"?>
<svg xmlns="http://www.w3.org/2000/svg" xmlns:xlink="http://www.w3.org/1999/xlink" version="1.1" xml:space="preserve"
     viewBox="0 0 512 512"
     width="100%"
     height="100%"
     x="0px"
     y="0px"
     >
<g>
    <path fill="#000000" d="M475.972,176.116c-0.263-0.141-0.528-0.278-0.796-0.416c10.543-8.151,18.161-15.713,21.689-20.171    c16.61-20.988,19.754-47.393,8.412-70.634c-11.486-23.534-35.2-38.09-61.882-37.86c-8.152,0.056-16.131,1.337-23.716,3.807    c-9.441,3.075-14.836,5.125-22.468,8.602c0.901-14.856-3.163-28.461-11.866-39.161C374.536,6.994,357.43-0.372,338.483,0.047    c-13.57,0.307-26.476,3.867-38.361,10.58c-18.434,10.412-32.757,21.065-45.479,32.026c-1.059-2.44-2.28-4.839-3.662-7.187    c-11.83-20.082-33.498-32.887-56.549-33.419c-16.103-0.35-31.083,4.766-43.336,14.852C127.21,36.562,109.5,66.644,95.071,112.717    c-16.973-6.779-35.571-6.9-52.624,0.304C16.662,123.914,0,149.294,0,177.68c0,64.013,30.141,121.598,47.604,149.58    C16.016,371.791,0,427.146,0,491.972c0,11.044,8.953,19.997,19.997,19.997s19.997-8.953,19.997-19.997    c0-113.694,53.617-189.4,159.362-225.014c57.064-19.22,94.939-36.414,144.736-65.707c9.52-5.599,12.697-17.855,7.098-27.375    c-5.6-9.52-17.857-12.698-27.375-7.097c-47.156,27.738-83.065,44.035-137.225,62.275c-44.903,15.123-82.303,37.294-111.606,66.087    c-22.115-38.831-34.989-81.535-34.989-117.46c0-14.899,9.308-24.141,18.018-27.819c11.646-4.921,24.416-1.824,35.033,8.498    c5.112,4.971,12.486,6.843,19.351,4.913c6.865-1.931,12.183-7.371,13.956-14.278c13.311-51.841,29.25-84.004,50.163-101.219    c4.948-4.073,10.34-5.925,16.997-5.745c9.187,0.212,18.218,5.603,23.009,13.734c3.08,5.228,5.579,13.692-0.002,24.334    c-4.563,8.701-2.131,19.428,5.74,25.308c7.869,5.882,18.845,5.173,25.896-1.67c2.109-2.047,4.188-4.078,6.252-6.095    c19.874-19.415,37.039-36.183,65.385-52.193c6.174-3.487,12.583-5.26,19.594-5.418c6.532-0.131,11.975,1.854,14.933,5.488    c3.915,4.812,3.329,11.901,2.156,16.969c-0.775,3.138-5.836,16.534-10.078,27.077c-3.075,7.645-1.146,16.392,4.857,22.034    c6.004,5.644,14.853,7.023,22.292,3.484c9.915-4.721,17.527-8.395,23.644-11.346c19.382-9.353,22.362-10.79,34.875-14.867    c3.719-1.211,7.513-1.813,11.601-1.841c0.076-0.001,0.149-0.001,0.225-0.001c13.208,0,21.8,7.943,25.444,15.41    c4.495,9.21,3.099,19.514-3.831,28.27c-3.678,4.646-25.081,24.323-51.782,34.658c-7.311,2.83-12.293,9.67-12.745,17.496    c-0.452,7.825,3.709,15.193,10.646,18.846c3.62,1.907,6.548,2.176,9.941,2.486c23.197,2.128,32.246,5.427,35.577,7.204    c7.387,3.943,10.254,9.374,8.764,16.601c-2.403,11.648-14.658,25.475-29.14,32.878c-23.51,12.019-48.659,21.456-76.884,28.852    c-8.9,2.332-15.061,10.437-14.926,19.636c0.135,9.2,6.528,17.121,15.493,19.191c15.113,3.495,20.498,14.915,20.498,24.437    c0,7.92-2.263,13.802-7.121,18.512c-19.029,18.448-70.623,16.849-92.654,16.168c-4.255-0.132-7.932-0.246-10.954-0.246    c-6.931,0-13.368,3.589-17.012,9.485c-3.643,5.896-3.974,13.259-0.874,19.458c6.041,12.077,1.867,23.607-4.053,30.37    c-2.753,3.146-12.93,12.996-28.272,7.719c-28.439-9.78-55.11-28.537-79.273-55.751c-7.332-8.259-19.972-9.01-28.23-1.676    c-8.259,7.332-9.009,19.972-1.677,28.23c28.789,32.423,61.146,54.971,96.173,67.017c7.261,2.497,14.637,3.713,21.895,3.713    c18.599,0,36.416-7.992,49.474-22.908c11.222-12.816,16.976-28.874,16.853-45.058c32.831,0.474,79.773-1.95,106.443-27.807    c12.61-12.225,19.276-28.556,19.276-47.226c0-13.715-4.099-26.371-11.367-36.825c15.832-5.729,30.873-12.255,45.395-19.678    c25.563-13.067,45.231-36.78,50.105-60.412C510.164,211.391,499.014,188.415,475.972,176.116z"/>
</g>
</svg>
