<?xml version="1.0" encoding="iso-8859-1"?>
<svg xmlns="http://www.w3.org/2000/svg" xmlns:xlink="http://www.w3.org/1999/xlink" version="1.1" xml:space="preserve"
     viewBox="0 0 512 512"
     width="100%"
     height="100%"
     x="0px"
     y="0px"
     >
<g>
    <path fill="#000000" d="M390.868,55.711C354.743,20.02,307.061,0.259,256.5,0.002L255.5,0v0.002C204.939,0.259,157.257,20.02,121.132,55.71    C84.612,91.792,64.5,139.661,64.5,190.5c0,36.855,14.459,73.613,44.204,112.373c24.125,31.437,54.231,58.743,78.423,80.685    c15.188,13.775,35.818,32.486,39.373,39.929V442h59v-18.188c3.832-7.342,23.84-25.776,38.598-39.374    c24.272-22.364,54.48-50.196,78.78-81.924C432.904,263.31,447.5,226.669,447.5,190.5C447.5,139.661,427.388,91.792,390.868,55.711    z M214,353.929c-46.212-41.913-109.5-99.314-109.5-163.429c0-65.26,42.172-120.951,100.949-141.765    c-4.16,6.096-8.153,12.646-11.899,19.766C176.693,100.543,168.5,137.342,168.5,181c0,43.273,18.434,88.195,36.26,131.639    c7.169,17.472,14.164,34.519,19.755,50.856C221.179,360.441,217.672,357.259,214,353.929z M269.294,301.683    c-4.443,10.983-8.823,21.81-12.882,32.458c-4.629-12.274-9.663-24.541-14.646-36.687C225.411,257.598,208.5,216.386,208.5,181    c0-69.662,24.287-106.327,47.5-131.74c23.213,25.413,47.5,62.078,47.5,131.74C303.5,217.125,286.11,260.111,269.294,301.683z     M371.121,278.193c-22.193,28.978-50.989,55.51-74.128,76.828c-2.956,2.724-5.803,5.347-8.538,7.882    c5.204-14.789,11.489-30.326,17.918-46.221C324.626,271.563,343.5,224.909,343.5,181c0-43.658-8.193-80.457-25.05-112.499    c-3.746-7.12-7.739-13.67-11.899-19.766C365.328,69.549,407.5,125.24,407.5,190.5C407.5,217.546,395.601,246.231,371.121,278.193z    "/>
    <rect fill="#000000" x="226.5" y="472" width="60" height="40"/>
</g>
</svg>
