<?xml version="1.0" encoding="iso-8859-1"?>
<svg xmlns="http://www.w3.org/2000/svg" xmlns:xlink="http://www.w3.org/1999/xlink" version="1.1" xml:space="preserve"
     viewBox="0 0 512 512"
     width="100%"
     height="100%"
     x="0px"
     y="0px"
     >
<g>
    <path fill="#000000" d="M334.148,240L354,212.869L373.852,240H512v-66.262l-3.571-5.144c-0.932-1.342-23.304-33.237-65.366-65.047    C392.838,65.565,335.453,43.688,276,39.674V0h-40v39.674c-59.453,4.014-116.838,25.89-167.063,63.873    c-42.062,31.81-64.434,63.705-65.366,65.047L0,173.738V240h142.148l20.115-27.491L183.048,240H236v193.54    c-22.546,3.574-39.203,12.764-54.282,21.083C164.819,463.948,150.225,472,128,472c-20.892,0-32.838-7.049-47.963-15.974    C61.895,445.322,39.317,432,0,432v40c28.396,0,42.907,8.562,59.709,18.477C76.808,500.565,96.187,512,128,512    c32.527,0,54.052-11.875,73.042-22.354C218.204,480.178,233.025,472,256,472c28.396,0,42.907,8.562,59.709,18.477    C332.808,500.565,352.187,512,384,512c32.527,0,54.052-11.875,73.042-22.354C474.204,480.178,489.025,472,512,472v-40    c-33.277,0-55.062,12.02-74.282,22.624C420.819,463.948,406.225,472,384,472c-20.892,0-32.838-7.049-47.963-15.974    c-14.818-8.743-32.596-19.232-60.037-22.782V240H334.148z M417.828,134.618c28.36,21.247,46.826,42.802,54.172,52.089V200h-77.852    l-27.976-38.234c-17.281-29.266-39.248-56.593-57.878-77.521C346.966,92.16,383.646,109.009,417.828,134.618z M148.772,163.209    L121.852,200H40v-13.307c14.439-18.273,72.179-84.245,165.896-102.804C187.307,105.621,165.177,134.081,148.772,163.209z     M202.951,200l-16.58-21.929c21.274-36.136,52.374-71.67,70.049-90.66c18.118,18.429,50.125,53.29,73.154,91.102L313.852,200    H202.951z"/>
</g>
</svg>
