<?xml version="1.0" encoding="iso-8859-1"?>
<svg xmlns="http://www.w3.org/2000/svg" xmlns:xlink="http://www.w3.org/1999/xlink" version="1.1" xml:space="preserve"
     viewBox="0 0 512 512"
     width="100%"
     height="100%"
     x="0px"
     y="0px"
     >
<g>
    <path fill="#000000" d="M402,220H286v-62.427c23.281-8.255,40-30.498,40-56.573c0-0.816-0.017-1.627-0.049-2.435l184.293-60.564L497.756,0    L311.012,61.369C300.01,48.887,283.908,41,266,41c-31.334,0-57.135,24.144-59.777,54.805L1.756,163l12.488,38.001l202.066-66.405    c7.133,10.517,17.514,18.66,29.69,22.977V220H130c-33.084,0-60,26.916-60,60v172c0,33.084,26.916,60,60,60h272    c33.084,0,60-26.916,60-60V280C462,246.917,435.084,220,402,220z M266,81c11.028,0,20,8.972,20,20s-8.972,20-20,20    c-11.028,0-20-8.972-20-20S254.972,81,266,81z M230,260h72v80h-72V260z M110,280c0-11.027,8.972-20,20-20h60v80h-80V280z M422,452    c0,11.028-8.972,20-20,20H130c-11.028,0-20-8.972-20-20v-72h312V452z M422,340h-80v-80h60c11.028,0,20,8.973,20,20V340z"/>
</g>
</svg>
