<?xml version="1.0" encoding="iso-8859-1"?>
<svg xmlns="http://www.w3.org/2000/svg" xmlns:xlink="http://www.w3.org/1999/xlink" version="1.1" xml:space="preserve"
     viewBox="0 0 512 512"
     width="100%"
     height="100%"
     x="0px"
     y="0px"
     >
<g>
    <path fill="#000000" d="M279.144,76.996l33.13-56.862L277.716,0L256,37.273L234.284,0l-34.557,20.134l33.13,56.862L0.034,476.604V512h511.932    v-35.396L279.144,76.996z M160.531,472.004c31.501-29.157,58.985-65.998,80.894-108.737c5.984-11.673,11.029-22.747,15.232-32.805    c4.428,10.101,9.703,21.241,15.895,33c16.804,31.91,43.065,73.069,80.371,108.542H160.531z M416.535,472.005    c-52.725-35.178-87.897-88.071-108.137-126.309c-22.404-42.324-32.026-76.638-32.115-76.961l-4.037-14.701h-33.02l-3.674,15.341    c-0.321,1.341-33.308,134.733-140.069,202.63H49l207-355.286l206.999,355.286H416.535z"/>
</g>
</svg>
