<?xml version="1.0" encoding="iso-8859-1"?>
<svg xmlns="http://www.w3.org/2000/svg" xmlns:xlink="http://www.w3.org/1999/xlink" version="1.1" xml:space="preserve"
     viewBox="0 0 512 512"
     width="100%"
     height="100%"
     x="0px"
     y="0px"
     >
<g>
    <path fill="#000000" d="M434.746,104.56l20.402-20.427c7.806-7.815,7.798-20.479-0.018-28.285c-7.815-7.804-20.478-7.798-28.284,0.018    l-20.451,20.476C380.878,53.77,352.287,35.8,321.142,22.829C284.768,7.681,246.617,0,207.749,0    C131.655,0,59.946,29.933,5.828,84.283c-4.711,4.731-6.751,11.503-5.436,18.049c1.315,6.547,5.81,12.006,11.983,14.552    c0.329,0.136,33.302,13.951,64.888,45.675c17.195,17.269,35.216,52.792,43.096,70.197c0.632,4.052,2.49,7.949,5.616,11.067    c2.444,2.437,5.36,4.11,8.453,5.021c0.146,0.051,0.284,0.117,0.431,0.165c0.36,0.116,31.432,10.324,62.977,36.148L73.575,409.569    c-23.394,23.395-23.394,61.458,0,84.853c11.697,11.696,27.062,17.545,42.426,17.545c15.364,0,30.729-5.849,42.426-17.545    c7.811-7.811,7.811-20.475,0-28.285c-7.811-7.809-20.474-7.809-28.284,0c-7.798,7.799-20.486,7.799-28.284,0    c-7.798-7.798-7.798-20.485,0.009-28.292l124.256-124.409c20.511,25.1,31.284,50.263,34.944,59.858    c0.523,4.289,2.416,8.443,5.713,11.731c0.766,0.764,1.589,1.43,2.439,2.044c1.448,1.144,3.06,2.095,4.803,2.811    c13.918,5.713,54.208,24.729,73.254,43.856c31.24,31.376,45.952,65.438,46.199,66.018C396.692,507.4,404.107,512,411.915,512    c0.294,0,0.59-0.03,0.885-0.043c0.267,0.011,0.534,0.038,0.801,0.038c5.103,0,10.208-1.941,14.111-5.827    c14.722-14.658,28.598-32.346,41.243-52.569c5.855-9.366,3.01-21.706-6.356-27.562c-9.365-5.854-21.706-3.009-27.561,6.356    c-5.851,9.359-11.967,18.048-18.294,26.018c-8.955-14.842-22.492-34.184-41.124-52.896c-16.54-16.611-42.081-31.296-61.127-40.913    c77.069-84.671,101.921-161.123,109.34-209.597c40.526,57.254,56.771,127.472,43.774,195.224    c-2.081,10.848,5.026,21.328,15.874,23.409c1.273,0.244,2.54,0.362,3.79,0.362c9.401,0,17.783-6.661,19.62-16.236    C524.114,267.99,497.226,174.684,434.746,104.56z M105.608,134.336c-18.065-18.144-36.588-31.342-51.054-40.197    C98.039,59.053,151.514,40,207.749,40c52.662,0,103.429,16.267,146.927,46.481c-48.296,7.552-124.047,32.516-207.913,109.112    C136.783,176.235,121.877,150.674,105.608,134.336z M287.545,334.742c-9.359-18.226-24.199-41.988-46.101-63.983    c-22.673-22.771-47.273-38.033-65.677-47.447c61.431-55.432,116.728-79.691,153.837-90.288c24.573-7.018,44.284-9.04,57.092-9.438    C385.727,157.237,373.395,239.018,287.545,334.742z"/>
</g>
</svg>
