<?xml version="1.0" encoding="iso-8859-1"?>
<svg xmlns="http://www.w3.org/2000/svg" xmlns:xlink="http://www.w3.org/1999/xlink" version="1.1" xml:space="preserve"
     viewBox="0 0 512 512"
     width="100%"
     height="100%"
     x="0px"
     y="0px"
     >
<g>
    <path fill="#000000" d="M304,81.5c11.046,0,20-8.954,20-20v-28c0-11.046-8.954-20-20-20c-11.046,0-20,8.954-20,20v28     C284,72.546,292.954,81.5,304,81.5z"/>
    <path fill="#000000" d="M376.235,101.575c3.229,1.945,6.787,2.871,10.3,2.871c6.782,0,13.397-3.451,17.151-9.684l14.447-23.985     c5.699-9.463,2.648-21.753-6.813-27.452c-9.463-5.7-21.753-2.649-27.452,6.813l-14.447,23.985     C363.722,83.585,366.772,95.875,376.235,101.575z"/>
    <path fill="#000000" d="M442.583,161.504c3.392,0,6.832-0.865,9.981-2.683l24.249-14c9.566-5.523,12.843-17.755,7.32-27.321     c-5.522-9.566-17.755-12.842-27.32-7.321l-24.249,14c-9.566,5.523-12.843,17.755-7.32,27.321     C428.948,157.917,435.67,161.503,442.583,161.504z"/>
    <path fill="#000000" d="M206.68,92.936c3.704,6.416,10.426,10.003,17.339,10.003c3.392,0,6.832-0.865,9.981-2.683     c9.566-5.522,12.843-17.754,7.321-27.32l-14-24.249c-5.523-9.566-17.755-12.843-27.321-7.32     c-9.566,5.522-12.843,17.754-7.321,27.32L206.68,92.936z"/>
    <path fill="#000000" d="M475.364,301.368l-23.985-14.447c-9.462-5.7-21.753-2.649-27.452,6.813c-5.7,9.462-2.649,21.752,6.813,27.451     l23.985,14.447c3.229,1.945,6.787,2.871,10.3,2.871c6.782,0,13.397-3.451,17.151-9.684     C487.875,319.357,484.825,307.067,475.364,301.368z"/>
    <path fill="#000000" d="M133.647,139.502l23.803,14.745c3.281,2.032,6.918,3,10.513,3c6.694,0,13.236-3.361,17.021-9.471     c5.816-9.39,2.919-21.717-6.471-27.534l-23.803-14.745c-9.389-5.816-21.717-2.919-27.534,6.471     C121.359,121.358,124.256,133.686,133.647,139.502z"/>
    <path fill="#000000" d="M492,201.5h-28c-11.046,0-20,8.954-20,20s8.954,20,20,20h28c11.046,0,20-8.954,20-20S503.046,201.5,492,201.5z"/>
    <path fill="#000000" d="M390.08,340c-0.02-4.336-0.034-8.8-0.034-12.5c0-10.796-2.16-21.094-6.05-30.501C403.192,276.678,414,249.784,414,221.5     c0-60.654-49.346-110-110-110c-26.173,0-51.535,9.351-71.413,26.331c-15.301,13.07-26.646,30.049-32.937,48.899     c-11.215-3.376-22.939-5.132-34.823-5.132C97.651,181.598,43,236.008,43,302.887v10.264c-26.724,18.758-42.915,49.62-43,83.233     c0,0.038,0,0.077,0,0.116v0.148c0,0.04,0,0.079,0,0.119c0.142,54.992,44.021,99.894,98.62,101.678     c0.493,0.037,0.99,0.055,1.49,0.055h271.678c11.046,0,20-8.954,20-20c0-11.046-8.954-20-20-20H102.12l-1.69-0.02     C66.992,457.644,40.04,430.2,40,396.573c0.027-23.097,12.428-44.015,32.376-54.602C78.913,338.502,83,331.706,83,324.305v-21.418     c0-44.823,36.708-81.289,81.827-81.289c39.7,0,74.231,29.648,80.323,68.964c1.188,7.666,6.701,13.954,14.146,16.133     c7.446,2.179,15.479-0.144,20.612-5.959c7.581-8.588,18.255-13.318,30.055-13.318c22.102,0,40.083,17.981,40.083,40.083     c0,11.429,0.134,29.96,0.135,30.146c0.08,10.989,9.011,19.854,20,19.854c22.126,0,40.819,18.738,40.819,40.917     c0,11.045,8.954,20,20,20c11.046,0,20-8.955,20-20c0-21.4-8.428-41.648-23.732-57.015     C416.774,350.866,403.981,343.565,390.08,340z M359.257,264.456c-13.603-10.659-30.712-17.038-49.293-17.038     c-11.86,0-23.401,2.58-33.862,7.401c-7.2-16.588-18.081-31.524-31.956-43.567c-2.625-2.279-5.34-4.431-8.13-6.463     c7.572-31.165,35.38-53.289,67.984-53.289c38.598,0,70,31.402,70,70C374,237.228,368.736,252.275,359.257,264.456z"/>
</g>
</svg>
