<?xml version="1.0" encoding="iso-8859-1"?>
<svg xmlns="http://www.w3.org/2000/svg" xmlns:xlink="http://www.w3.org/1999/xlink" version="1.1" xml:space="preserve"
     viewBox="0 0 512 512"
     width="100%"
     height="100%"
     x="0px"
     y="0px"
     >
<g>
    <path fill="#000000" d="M238.19,260.443c-10.8-2.315-21.432,4.565-23.747,15.366l-30,140c-2.314,10.8,4.565,21.432,15.366,23.747     c1.413,0.303,2.821,0.448,4.21,0.448c9.229,0,17.525-6.425,19.537-15.814l30-140C255.87,273.39,248.991,262.758,238.19,260.443z"/>
    <path fill="#000000" d="M167.19,260.443c-10.801-2.315-21.432,4.565-23.747,15.366l-30,140c-2.314,10.8,4.565,21.432,15.366,23.747     c1.413,0.303,2.821,0.448,4.21,0.448c9.229,0,17.525-6.425,19.537-15.814l30-140C184.87,273.39,177.991,262.758,167.19,260.443z"/>
    <circle fill="#000000" cx="119" cy="492" r="20"/>
    <circle fill="#000000" cx="260" cy="492" r="20"/>
    <circle fill="#000000" cx="189" cy="492" r="20"/>
    <path fill="#000000" d="M309.19,260.443c-10.802-2.315-21.433,4.565-23.747,15.366l-30,140c-2.314,10.8,4.565,21.432,15.366,23.747     c1.413,0.303,2.821,0.448,4.21,0.448c9.229,0,17.525-6.425,19.537-15.814l30-140C326.87,273.39,319.991,262.758,309.19,260.443z"/>
    <path fill="#000000" d="M462,149.646v-13.324C462,61.154,400.846,0,325.678,0c-32.733,0-64.381,11.776-89.115,33.16     c-16.364,14.147-29.026,31.881-37.093,51.591C187.068,78.414,173.217,75,159,75c-49.075,0-89,39.925-89,89v18.188     C29.978,191.163,0,226.68,0,269c0,43.419,30.509,80.286,72.543,87.662c1.169,0.206,2.333,0.305,3.48,0.305     c9.531,0,17.972-6.837,19.677-16.547c1.908-10.88-5.363-21.247-16.243-23.156C56.594,313.252,40,292.954,40,269     c0-27.019,22.361-49,49.846-49H90c11.046,0,20-8.954,20-20v-36c0-27.019,21.981-49,49-49c14.036,0,27.427,6.052,36.742,16.604     c5.133,5.815,13.168,8.136,20.612,5.959c7.445-2.179,12.958-8.466,14.146-16.132C237.693,75.007,278.61,40,325.678,40     C378.79,40,422,83.21,422,136.322v24.598c0,7.401,4.087,14.197,10.624,17.666C456.912,191.477,472,216.542,472,244     c0,26.339-14.183,50.905-37.015,64.112c-1.272,0.737-2.583,1.443-3.896,2.101c-9.875,4.947-13.869,16.965-8.922,26.84     c4.947,9.875,16.964,13.871,26.84,8.922c2.025-1.014,4.046-2.104,6.008-3.239C490.165,322.403,512,284.57,512,244     C512,205.867,493.119,170.736,462,149.646z"/>
    <path fill="#000000" d="M380.19,260.443c-10.8-2.315-21.432,4.565-23.747,15.366l-30,140c-2.314,10.8,4.565,21.432,15.366,23.747     c1.413,0.303,2.821,0.448,4.21,0.448c9.229,0,17.525-6.425,19.537-15.814l30-140C397.87,273.39,390.991,262.758,380.19,260.443z"/>
    <circle fill="#000000" cx="331" cy="492" r="20"/>
</g>
</svg>
