<?xml version="1.0" encoding="iso-8859-1"?>
<svg xmlns="http://www.w3.org/2000/svg" xmlns:xlink="http://www.w3.org/1999/xlink" version="1.1" xml:space="preserve"
     viewBox="0 0 512 512"
     width="100%"
     height="100%"
     x="0px"
     y="0px"
     >
<g>
    <path fill="#000000" d="M20,353.001c11.046,0,20-8.954,20-20v-76.409c0-119.17,96.74-216.168,215.816-216.591     c0.237,0.001,0.474,0.006,0.711,0.007c1.921,0.01,3.838,0.044,5.752,0.104c0.22,0.007,0.439,0.012,0.658,0.019     c52.816,1.821,102.63,22.76,140.723,58.162c23.118,21.723,41.645,48.785,53.741,79.943c3.074,7.919,10.635,12.768,18.649,12.768     c2.406,0,4.854-0.438,7.233-1.361c10.297-3.997,15.403-15.585,11.406-25.882c-6.433-16.571-14.504-32.298-24.06-47.004     c-0.541-1.389-1.229-2.744-2.105-4.028c-20.508-30.065-47.581-55.71-78.822-74.824c-1.573-0.969-3.157-1.915-4.747-2.848     c-0.379-0.221-0.76-0.439-1.14-0.658C348.625,14,309.299,2.373,268.434,0.334c-0.01,0-0.021-0.001-0.031-0.001     c-1.288-0.064-2.576-0.123-3.867-0.168c-1.051-0.038-2.103-0.064-3.155-0.089c-0.697-0.016-1.395-0.029-2.093-0.039     c-0.898-0.014-1.797-0.03-2.695-0.034L255.409,0c-0.025,0-0.048,0.004-0.072,0.004c-68.071,0.323-132.014,26.982-180.182,75.15     C26.69,123.618,0,188.054,0,256.592v76.409C0,344.047,8.954,353.001,20,353.001z"/>
    <path fill="#000000" d="M337.057,98.691C312.198,85.81,284.171,79.001,256,79.001h-0.391c-0.066,0-0.132,0-0.197,0.001     c-46.886,0.152-90.89,18.494-123.968,51.687C98.271,163.978,80,208.265,80,255.392v33.609c0,11.046,8.954,20,20,20     s20-8.954,20-20v-33.609c0-75.206,61.01-136.391,136-136.391c43.285,0,84.432,20.87,110.067,55.828     c3.919,5.343,9.989,8.174,16.145,8.174c4.104,0,8.247-1.26,11.811-3.874c8.907-6.532,10.833-19.048,4.301-27.956     C382.279,129.295,361.094,111.147,337.057,98.691z"/>
    <path fill="#000000" d="M491,283.518v-1.804c0-19.274-7.772-37.529-21.885-51.403c-13.979-13.742-32.256-21.31-51.467-21.31     c-17.292,0-34.008,6.222-47.071,17.518c-5.979,5.171-11.022,11.25-14.973,17.958c-4.022-0.972-8.205-1.476-12.466-1.476     c-27.485,0-49.874,22.776-50.136,50.872c-18.595,7.9-32.002,26.353-32.002,47.238c0,13.542,5.139,26.262,14.47,35.817     c9.493,9.72,22.253,15.073,35.928,15.073H450c34.187,0,62-27.813,62-62C512,312.097,504.174,295.171,491,283.518z M450,352.001     H311.398c-5.927,0-10.398-4.682-10.398-10.89c0-5.924,5.688-11.319,11.932-11.319c10.989,0,19.921-8.866,20-19.856     c0,0,0.068-9.606,0.068-15.567c0-6.375,4.453-11.368,10.138-11.368c2.409,0,5.775,0.559,8.125,3.225     c5.132,5.821,13.169,8.15,20.616,5.971c7.449-2.178,12.964-8.469,14.151-16.138c2.387-15.426,15.979-27.058,31.618-27.058     c17.767,0,33.352,15.287,33.352,32.713v11.919c0,7.139,3.804,13.735,9.982,17.311c6.796,3.933,11.018,11.235,11.018,19.057     C472,342.132,462.132,352.001,450,352.001z"/>
    <path fill="#000000" d="M309.998,220.001c5.226,0,10.446-2.036,14.369-6.086c7.684-7.935,7.481-20.596-0.453-28.281     c-17.476-16.925-42.161-26.633-67.724-26.633h-0.381c-0.109,0-0.218,0.001-0.326,0.002c-25.442,0.187-49.383,10.487-67.486,29.05     C169.943,206.566,160,230.907,160,256.592v22.409c0,11.046,8.954,20,20,20s20-8.954,20-20v-22.409     c0-31.217,25.732-57.591,56.19-57.591c15.271,0,29.813,5.601,39.896,15.367C299.971,218.13,304.987,220.001,309.998,220.001z"/>
    <path fill="#000000" d="M230,403.518v-1.804c0-19.274-7.772-37.529-21.885-51.403c-13.979-13.742-32.256-21.31-51.467-21.31     c-17.292,0-34.008,6.222-47.071,17.518c-5.979,5.171-11.022,11.25-14.973,17.958c-4.022-0.972-8.205-1.476-12.466-1.476     c-27.485,0-49.874,22.776-50.136,50.872C13.407,421.773,0,440.226,0,461.111c0,13.542,5.139,26.262,14.47,35.817     c9.493,9.72,22.253,15.073,35.928,15.073H189c34.187,0,62-27.813,62-62C251,432.097,243.174,415.171,230,403.518z M189,472.001     H50.398c-5.927,0-10.398-4.682-10.398-10.89c0-5.924,5.688-11.319,11.932-11.319c10.989,0,19.921-8.866,20-19.856     c0,0,0.068-9.606,0.068-15.567c0-6.375,4.453-11.368,10.138-11.368c2.409,0,5.775,0.559,8.125,3.225     c5.131,5.821,13.168,8.15,20.616,5.971c7.449-2.178,12.964-8.469,14.151-16.138c2.387-15.426,15.979-27.058,31.618-27.058     c17.767,0,33.352,15.287,33.352,32.713v11.919c0,7.139,3.804,13.735,9.982,17.311c6.796,3.933,11.018,11.235,11.018,19.057     C211,462.132,201.131,472.001,189,472.001z"/>
</g>
</svg>
